<?xml version="1.0" encoding="UTF-8"?><svg id="a" xmlns="http://www.w3.org/2000/svg" xmlns:xlink="http://www.w3.org/1999/xlink" viewBox="0 0 2052.9 1173.1"><defs><linearGradient id="b" x1="575.9" y1="202.7" x2="1492.3" y2="1014.5" gradientUnits="userSpaceOnUse"><stop offset="0" stop-color="#0086ca"/><stop offset=".2" stop-color="#137bc2"/><stop offset=".6" stop-color="#4d5bab"/><stop offset=".8" stop-color="#71479d"/><stop offset="1" stop-color="#7f4098"/></linearGradient><linearGradient id="c" x1="543.5" y1="1000" x2="933.2" y2="647.6" gradientUnits="userSpaceOnUse"><stop offset=".2" stop-color="#a7a9ac"/><stop offset=".4" stop-color="#919396"/><stop offset=".9" stop-color="#5c5d5f"/><stop offset=".9" stop-color="#58595b"/></linearGradient><linearGradient id="d" x1="1488.7" y1="155.8" x2="1020.6" y2="581.4" gradientUnits="userSpaceOnUse"><stop offset=".2" stop-color="#231f20"/><stop offset=".5" stop-color="#363435"/><stop offset=".9" stop-color="#58595b"/></linearGradient><linearGradient id="e" x1="508.4" y1="136.3" x2="131.5" y2="476.8" gradientUnits="userSpaceOnUse"><stop offset=".2" stop-color="#0f82c5"/><stop offset=".3" stop-color="#248dca"/><stop offset=".4" stop-color="#5caad7"/><stop offset=".7" stop-color="#b5d8ed"/><stop offset=".9" stop-color="#fff"/></linearGradient><linearGradient id="f" x1="366.4" y1="907" x2="227.3" y2="787.4" gradientUnits="userSpaceOnUse"><stop offset=".2" stop-color="#a7a9ac"/><stop offset=".3" stop-color="#a69b96"/><stop offset=".7" stop-color="#a57a5f"/><stop offset=".9" stop-color="#a5673f"/></linearGradient><linearGradient id="g" x1="1578.5" y1="201.8" x2="1902.2" y2="486.5" gradientUnits="userSpaceOnUse"><stop offset="0" stop-color="#231f20"/><stop offset=".2" stop-color="#382a25"/><stop offset=".6" stop-color="#6f4932"/><stop offset="1" stop-color="#a5673f"/></linearGradient><linearGradient id="h" x1="1625.3" y1="927.6" x2="1930.7" y2="653.3" gradientUnits="userSpaceOnUse"><stop offset="0" stop-color="#784196"/><stop offset=".4" stop-color="#8b5170"/><stop offset=".8" stop-color="#9d614c"/><stop offset="1" stop-color="#a5673f"/></linearGradient></defs><polygon points="1617.3 1032.6 1400.7 1033.1 1400.6 1033 1007.9 682.3 899.3 585.4 507.3 235.3 616.3 138.8 1008.3 488.8 1116.9 585.8 1509.1 936.1 1617.3 1032.6" style="fill:url(#b); stroke:#231f20; stroke-miterlimit:10; stroke-width:5px;"/><polygon points="616.3 138.8 507.3 235.3 398.7 138.3 616.3 138.8" style="fill:none; stroke:#231f20; stroke-miterlimit:10; stroke-width:5px;"/><polygon points="899.3 585.4 1007.9 682.3 1006.4 683.7 613.1 1032 611.6 1033.3 611.6 1033.3 394 1032.9 395.5 1031.6 503 936.4 504.5 935 897.8 586.7 899.3 585.4" style="fill:url(#c); stroke:#231f20; stroke-miterlimit:10; stroke-width:5px;"/><polygon points="1619.4 140.7 1511.4 236.4 1510.4 237.3 1116.9 585.8 1008.3 488.8 1401.3 140.7 1402.3 139.8 1403.8 138.5 1616.4 138 1618.4 139.8 1619.4 140.7" style="fill:url(#d); stroke:#231f20; stroke-miterlimit:10; stroke-width:5px;"/><polygon points="1620.4 139.8 1619.4 140.7 1618.4 139.8 1616.4 138 1618.4 138 1620.4 139.8" style="fill:#fff; stroke:#231f20; stroke-miterlimit:10; stroke-width:5px;"/><polygon points="616.3 138.8 507.3 235.3 240.1 472 240.1 278.8 398.7 138.3 616.3 138.8" style="fill:url(#e); stroke:#231f20; stroke-miterlimit:10; stroke-width:5px;"/><polygon points="614.6 1033.3 397 1032.9 240.1 892.8 240.1 698.9 506 936.4 614.6 1033.3" style="fill:url(#f); stroke:#231f20; stroke-miterlimit:10; stroke-width:5px;"/><polygon points="240.1 892.8 104.4 771.5 104.8 771.1 240.1 892.8" style="fill:#fff; stroke:#231f20; stroke-miterlimit:10; stroke-width:5px;"/><polygon points="240.1 278.8 240.1 892.8 104.8 771.1 95.5 762.8 95.5 406.9 240.1 278.8" style="fill:none; stroke:#231f20; stroke-miterlimit:10; stroke-width:5px;"/><polygon points="1919.6 406.6 1919.6 564 1903.4 579.1 1775 471.7 1510.4 237.3 1511.4 236.4 1619.4 140.7 1775 278.5 1919.6 406.6" style="fill:url(#g); stroke:#231f20; stroke-miterlimit:10; stroke-width:5px;"/><polygon points="1403.8 138.5 1402.3 139.8 1401.3 140.7 1400.3 139.8 1398.8 138.5 1401.8 138.5 1403.8 138.5" style="fill:#fff; stroke:#231f20; stroke-miterlimit:10; stroke-width:5px;"/><polygon points="1400.7 1033.1 1400.5 1033.1 1400.6 1033 1400.7 1033.1" style="fill:none; stroke:#231f20; stroke-miterlimit:10; stroke-width:5px;"/><polygon points="1919.6 564 1919.6 762.5 1910.4 770.8 1775 892.5 1618.1 1032.6 1617.3 1032.6 1509.1 936.1 1775 698.6 1903.4 579.1 1919.6 564" style="fill:url(#h); stroke:#231f20; stroke-miterlimit:10; stroke-width:5px;"/><polygon points="1903.4 579.1 1775 698.6 1775 471.7 1903.4 579.1" style="fill:#a5673f; stroke-width:0px;"/><line x1="614.6" y1="1033.3" x2="397" y2="1032.9" style="fill:none; stroke:#231f20; stroke-miterlimit:10; stroke-width:5px;"/><line x1="616.3" y1="138.8" x2="398.7" y2="138.3" style="fill:none; stroke:#231f20; stroke-miterlimit:10; stroke-width:5px;"/><line x1="1903.4" y1="579.1" x2="1775" y2="698.6" style="fill:none; stroke:#231f20; stroke-miterlimit:10; stroke-width:5px;"/></svg>